<svg width="49" height="25" viewBox="0 0 49 25" fill="none" xmlns="http://www.w3.org/2000/svg">
<path d="M30.994 1.50505H27.05C26.988 1.50505 26.894 1.56605 26.894 1.65905V5.77405C26.894 5.83605 26.957 5.89705 27.05 5.89705H30.994C31.056 5.89705 31.149 5.83605 31.149 5.77405V1.66005C31.118 1.59805 31.056 1.50605 30.994 1.50605V1.50505ZM30.994 7.70905H27.05C26.988 7.70905 26.894 7.77105 26.894 7.86305V24.418C26.894 24.48 26.957 24.541 27.05 24.541H30.994C31.056 24.541 31.149 24.48 31.149 24.418V7.83205C31.118 7.77105 31.056 7.70905 30.994 7.70905ZM22.67 10.75H12.422C12.36 10.75 12.298 10.812 12.298 10.904V14.528C12.298 14.59 12.36 14.682 12.422 14.682H18.509V20.272C17.081 20.579 15.279 20.794 12.857 20.794C7.577 20.794 4.503 17.63 4.503 12.685C4.503 7.74005 7.578 4.08505 13.758 4.08505C17.298 4.08505 19.255 4.48505 21.025 4.97505C21.149 4.97505 21.242 4.94505 21.242 4.85305L21.615 1.01305C21.615 0.953047 21.584 0.829047 21.46 0.829047C19.472 0.400047 17.205 0.123047 14.193 0.123047C5.03 0.153047 0.0299988 5.62005 0.0299988 12.685C0.0299988 19.75 5.03 24.879 12.546 24.879C17.483 24.879 20.31 24.203 22.67 23.036C22.732 23.006 22.825 22.913 22.825 22.852V10.873C22.794 10.812 22.732 10.75 22.67 10.75ZM42.67 14.067C40.092 13.392 38.726 13.269 38.726 12.225C38.726 10.873 39.813 10.719 41.862 10.719C43.912 10.719 45.869 11.027 47.235 11.519C47.297 11.519 47.421 11.487 47.421 11.426L47.731 8.04705C47.731 7.98605 47.701 7.95505 47.639 7.92405C46.428 7.67905 44.347 7.37205 41.676 7.37205C37.111 7.37205 34.813 9.09205 34.813 12.317C34.813 15.48 36.552 16.74 39.843 17.538C43.26 18.398 44.626 18.49 44.626 19.995C44.626 21.101 43.912 21.531 41.148 21.531C38.664 21.531 37.018 21.163 35.62 20.794C35.59 20.794 35.496 20.824 35.496 20.886L35.123 24.296C35.123 24.356 35.154 24.388 35.247 24.388C36.397 24.572 38.539 24.879 41.552 24.879C46.956 24.879 48.85 23.067 48.85 19.627C48.85 15.941 46.397 15.02 42.67 14.067Z" fill="#0099FF"/>
</svg>
