<svg width="99" height="24" viewBox="0 0 99 24" fill="none" xmlns="http://www.w3.org/2000/svg">
<path d="M38.876 6.34002C33.255 6.34002 30.149 10.242 30.149 15.095C30.149 19.978 32.696 23.848 39.342 23.848C42.043 23.848 44.404 23.449 45.118 23.173C45.18 23.142 45.211 23.111 45.211 23.019L44.776 19.825C44.776 19.763 44.714 19.702 44.652 19.702C44.093 19.917 42.261 20.47 39.776 20.47C36.019 20.47 34.373 18.75 34.373 16.292H45.988C46.05 16.292 46.143 16.232 46.143 16.17V14.388C46.173 10.242 44.124 6.34002 38.876 6.34002ZM34.404 13.006C34.404 11.071 36.019 9.71902 38.752 9.71902C40.988 9.71902 42.23 11.009 42.23 13.006H34.404ZM59.621 20.009C58.907 20.255 58.006 20.409 56.981 20.409C55.957 20.409 55.584 19.917 55.429 19.026V10.303H59.869C59.932 10.303 59.994 10.242 59.994 10.18V6.83202C59.994 6.77102 59.932 6.67902 59.87 6.67902H55.429V1.02702C55.429 0.935023 55.366 0.874023 55.304 0.874023H51.329C51.267 0.874023 51.174 0.935023 51.174 1.02702V6.71002H48.317C48.255 6.71002 48.161 6.77202 48.161 6.86402V10.181C48.161 10.243 48.224 10.304 48.317 10.304H51.174V19.304C51.174 21.331 52.106 23.911 56.05 23.911C57.882 23.911 59.404 23.604 59.994 23.419C60.056 23.389 60.087 23.358 60.087 23.266L59.745 20.133C59.745 20.041 59.652 20.009 59.621 20.009ZM89.776 6.34102C84.156 6.34102 80.894 10.241 80.894 15.095C80.894 19.978 84.155 23.848 89.776 23.848C95.398 23.848 98.689 19.978 98.689 15.095C98.689 10.242 95.398 6.34102 89.776 6.34102ZM89.776 20.531C86.546 20.531 85.211 17.981 85.211 15.125C85.211 12.269 86.578 9.71902 89.776 9.71902C93.006 9.71902 94.373 12.269 94.373 15.125C94.403 17.982 93.006 20.531 89.776 20.531ZM20.77 6.34102C17.23 6.34102 15.335 8.30702 14.9 8.85902C14.466 8.18402 13.068 6.34102 9.77599 6.34102C8.09899 6.34102 6.63999 6.86302 5.55299 7.84602C5.36599 8.03002 5.14899 8.30602 5.08699 8.52202H5.02499C5.08699 8.30702 5.17999 7.84602 5.17999 7.53902V6.83202C5.17999 6.77102 5.11799 6.67902 5.02499 6.67902H1.04999C0.987988 6.67902 0.924988 6.74002 0.924988 6.83202V23.388C0.924988 23.449 0.987988 23.51 1.04999 23.51H5.02499C5.08699 23.51 5.17999 23.45 5.17999 23.388V12.638C5.17999 10.795 6.63999 9.93502 8.50299 9.93502C10.366 9.93502 11.857 10.795 11.857 12.637V23.387C11.857 23.449 11.919 23.51 12.012 23.51H15.988C16.05 23.51 16.112 23.45 16.112 23.388V12.638C16.112 10.795 17.572 9.93502 19.435 9.93502C21.298 9.93502 22.758 10.795 22.758 12.637V23.387C22.758 23.449 22.82 23.51 22.913 23.51H26.981C27.043 23.51 27.137 23.45 27.137 23.388V12.822C27.137 8.39902 24.28 6.34102 20.77 6.34102ZM71.08 6.34102C65.46 6.34102 62.354 10.241 62.354 15.125C62.354 20.009 64.901 23.879 71.547 23.879C74.28 23.879 76.64 23.479 77.354 23.203C77.416 23.173 77.478 23.142 77.478 23.05L77.043 19.855C77.043 19.794 76.981 19.733 76.919 19.733C76.329 19.948 74.528 20.5 72.043 20.5C68.286 20.5 66.64 18.78 66.64 16.323H78.255C78.317 16.323 78.41 16.262 78.41 16.2V14.42C78.379 10.243 76.33 6.34102 71.08 6.34102ZM66.609 13.006C66.609 11.071 68.224 9.71902 70.957 9.71902C73.224 9.71902 74.435 11.009 74.435 13.006H66.609Z" fill="black"/>
</svg>
