<!-- icon666.com - MILLIONS OF FREE VECTOR ICONS --><svg viewBox="-27 0 455 456" xmlns="http://www.w3.org/2000/svg"><path d="m364.5 456h-328c-19.847656 0-36-16.152344-36-36v-332c0-13.230469 10.769531-24 24-24h288c13.230469 0 24 10.769531 24 24v332c0 15.441406 12.558594 28 28 28 2.207031 0 4 1.792969 4 4s-1.792969 4-4 4zm-340-384c-8.824219 0-16 7.175781-16 16v332c0 15.441406 12.558594 28 28 28h305.398438c-8.167969-6.601562-13.398438-16.703125-13.398438-28v-332c0-8.824219-7.175781-16-16-16zm0 0" fill="#263238"></path><path d="m364.5 456c-2.207031 0-4-1.792969-4-4s1.792969-4 4-4c15.441406 0 28-12.558594 28-28v-112c0-8.824219-7.175781-16-16-16h-28c-2.207031 0-4-1.792969-4-4s1.792969-4 4-4h28c13.230469 0 24 10.769531 24 24v112c0 19.847656-16.152344 36-36 36zm0 0" fill="#263238"></path><path d="m300.5 368h-264c-2.207031 0-4-1.792969-4-4s1.792969-4 4-4h264c2.207031 0 4 1.792969 4 4s-1.792969 4-4 4zm0 0" fill="#263238"></path><path d="m300.5 408h-264c-2.207031 0-4-1.792969-4-4s1.792969-4 4-4h264c2.207031 0 4 1.792969 4 4s-1.792969 4-4 4zm0 0" fill="#263238"></path><path d="m300.5 328h-264c-2.207031 0-4-1.792969-4-4s1.792969-4 4-4h264c2.207031 0 4 1.792969 4 4s-1.792969 4-4 4zm0 0" fill="#263238"></path><path d="m44.5 148h248c4.414062 0 8-3.585938 8-8v-24c0-4.414062-3.585938-8-8-8h-248c-4.414062 0-8 3.585938-8 8v24c0 4.414062 3.574219 8 8 8zm0 0" fill="#ffd740"></path><path d="m292.5 152h-248c-6.617188 0-12-5.382812-12-12v-24c0-6.617188 5.382812-12 12-12h248c6.617188 0 12 5.382812 12 12v24c0 6.617188-5.382812 12-12 12zm-248-40c-2.199219 0-4 1.800781-4 4v24c0 2.199219 1.800781 4 4 4h248c2.199219 0 4-1.800781 4-4v-24c0-2.199219-1.800781-4-4-4zm0 0" fill="#263238"></path><path d="m192.5 284h100c4.414062 0 8-3.585938 8-8v-80c0-4.414062-3.585938-8-8-8h-100c-4.414062 0-8 3.585938-8 8v80c0 4.414062 3.574219 8 8 8zm0 0" fill="#40c4ff"></path><g fill="#263238"><path d="m292.5 288h-100c-6.617188 0-12-5.382812-12-12v-80c0-6.617188 5.382812-12 12-12h100c6.617188 0 12 5.382812 12 12v80c0 6.617188-5.382812 12-12 12zm-100-96c-2.199219 0-4 1.800781-4 4v80c0 2.199219 1.800781 4 4 4h100c2.199219 0 4-1.800781 4-4v-80c0-2.199219-1.800781-4-4-4zm0 0"></path><path d="m160.5 200h-124c-2.207031 0-4-1.792969-4-4s1.792969-4 4-4h124c2.207031 0 4 1.792969 4 4s-1.792969 4-4 4zm0 0"></path><path d="m160.5 240h-124c-2.207031 0-4-1.792969-4-4s1.792969-4 4-4h124c2.207031 0 4 1.792969 4 4s-1.792969 4-4 4zm0 0"></path><path d="m160.5 280h-124c-2.207031 0-4-1.792969-4-4s1.792969-4 4-4h124c2.207031 0 4 1.792969 4 4s-1.792969 4-4 4zm0 0"></path><path d="m352.5 24h-32c-2.207031 0-4-1.792969-4-4s1.792969-4 4-4h32c2.207031 0 4 1.792969 4 4s-1.792969 4-4 4zm0 0"></path><path d="m336.5 40c-2.207031 0-4-1.792969-4-4v-32c0-2.207031 1.792969-4 4-4s4 1.792969 4 4v32c0 2.207031-1.792969 4-4 4zm0 0"></path><path d="m396.5 60h-32c-2.207031 0-4-1.792969-4-4s1.792969-4 4-4h32c2.207031 0 4 1.792969 4 4s-1.792969 4-4 4zm0 0"></path><path d="m380.5 76c-2.207031 0-4-1.792969-4-4v-32c0-2.207031 1.792969-4 4-4s4 1.792969 4 4v32c0 2.207031-1.792969 4-4 4zm0 0"></path><path d="m364.578125 228c-2.207031 0-4-1.792969-4-4v-96c0-2.207031 1.792969-4 4-4 2.210937 0 4 1.792969 4 4v96c0 2.207031-1.789063 4-4 4zm0 0"></path><path d="m364.578125 252c-2.207031 0-4-1.792969-4-4v-8c0-2.207031 1.792969-4 4-4 2.210937 0 4 1.792969 4 4v8c0 2.207031-1.789063 4-4 4zm0 0"></path></g></svg>