<svg width="21" height="20" viewBox="0 0 21 20" fill="none" xmlns="http://www.w3.org/2000/svg">
<path d="M18.8806 8.76389H4.46201L10.7613 2.69957C11.2647 2.21492 11.2647 1.4196 10.7613 0.93495C10.6418 0.819748 10.5 0.728351 10.3438 0.665991C10.1877 0.603632 10.0203 0.571533 9.85123 0.571533C9.68217 0.571533 9.51477 0.603632 9.35862 0.665991C9.20246 0.728351 9.06061 0.819748 8.94119 0.93495L0.434625 9.12427C0.31496 9.23924 0.220023 9.3758 0.155247 9.52613C0.0904713 9.67646 0.0571289 9.83762 0.0571289 10.0004C0.0571289 10.1631 0.0904713 10.3243 0.155247 10.4746C0.220023 10.6249 0.31496 10.7615 0.434625 10.8765L8.94119 19.0658C9.0607 19.1808 9.20258 19.2721 9.35872 19.3344C9.51487 19.3966 9.68222 19.4287 9.85123 19.4287C10.0202 19.4287 10.1876 19.3966 10.3437 19.3344C10.4999 19.2721 10.6418 19.1808 10.7613 19.0658C10.8808 18.9507 10.9756 18.8142 11.0402 18.6638C11.1049 18.5135 11.1382 18.3524 11.1382 18.1897C11.1382 18.027 11.1049 17.8659 11.0402 17.7156C10.9756 17.5652 10.8808 17.4286 10.7613 17.3136L4.46201 11.2493H18.8806C19.5905 11.2493 20.1714 10.6901 20.1714 10.0066C20.1714 9.3231 19.5905 8.76389 18.8806 8.76389Z" fill="black"/>
</svg>
